<svg xmlns="http://www.w3.org/2000/svg" viewBox="0 0 24 24" fill="currentColor">
  <path d="M12 2.163c3.204 0 3.584.012 4.85.07 1.366.062 2.633.336 3.608 1.311.975.975 1.249 2.242 1.311 3.608.058 1.266.07 1.646.07 4.85s-.012 3.584-.07 4.85c-.062 1.366-.336 2.633-1.311 3.608-.975.975-2.242 1.249-3.608 1.311-1.266.058-1.646.07-4.85.07s-3.584-.012-4.85-.07c-1.366-.062-2.633-.336-3.608-1.311-.975-.975-1.249-2.242-1.311-3.608C2.175 15.584 2.163 15.204 2.163 12s.012-3.584.07-4.85c.062-1.366.336-2.633 1.311-3.608.975-.975 2.242-1.249 3.608-1.311C8.416 2.175 8.796 2.163 12 2.163zm0 1.802c-3.142 0-3.504.011-4.74.067-.969.044-1.811.21-2.46.86-.65.65-.816 1.491-.86 2.46-.056 1.236-.067 1.598-.067 4.74s.011 3.504.067 4.74c.044.969.21 1.811.86 2.46.65.65 1.491.816 2.46.86 1.236.056 1.598.067 4.74.067s3.504-.011 4.74-.067c.969-.044 1.811-.21 2.46-.86.65-.65.816-1.491.86-2.46.056-1.236.067-1.598.067-4.74s-.011-3.504-.067-4.74c-.044-.969-.21-1.811-.86-2.46-.65-.65-1.491-.816-2.46-.86C15.504 3.976 15.142 3.965 12 3.965zm0 3.064a4.971 4.971 0 1 1 0 9.942 4.971 4.971 0 0 1 0-9.942zm0 8.197a3.226 3.226 0 1 0 0-6.452 3.226 3.226 0 0 0 0 6.452zM18.406 6.594a1.16 1.16 0 1 1-2.32 0 1.16 1.16 0 0 1 2.32 0z"/>
</svg>
