<svg xmlns="http://www.w3.org/2000/svg" viewBox="0 0 24 24" fill="currentColor">
  <path d="M21.579 6.855c.14-.465 0-.806-.662-.806h-2.193c-.557 0-.813.295-.953.62 0 0-1.115 2.717-2.696 4.482-.512.512-.744.674-1.023.674-.139 0-.341-.162-.341-.627V6.855c0-.557-.161-.806-.625-.806H9.642c-.348 0-.557.26-.557.504 0 .528.79.65.871 2.138v3.228c0 .708-.127.836-.407.836-.743 0-2.551-2.728-3.624-5.851-.214-.607-.428-.853-.989-.853H2.742c-.626 0-.751.295-.751.62 0 .582.743 3.462 3.461 7.271 1.812 2.601 4.363 4.012 6.687 4.012 1.394 0 1.566-.314 1.566-.853v-1.967c0-.626.132-.751.574-.751.325 0 .882.164 2.183 1.418 1.486 1.486 1.732 2.153 2.567 2.153h2.193c.626 0 .939-.314.759-.932-.197-.615-.907-1.51-1.849-2.569-.512-.605-1.28-1.256-1.512-1.582-.325-.419-.232-.604 0-.976.001 0 2.674-3.764 2.952-5.041z"/>
</svg>
